<svg xmlns="http://www.w3.org/2000/svg" viewBox="0 0 800 500" width="100%" height="100%">
  <defs>
    <linearGradient id="bgGrad" x1="0%" y1="0%" x2="100%" y2="100%">
      <stop offset="0%" stop-color="#09090b" />
      <stop offset="100%" stop-color="#18181b" />
    </linearGradient>
    <linearGradient id="accentGrad" x1="0%" y1="0%" x2="100%" y2="0%">
      <stop offset="0%" stop-color="#10b981" stop-opacity="0.15" />
      <stop offset="100%" stop-color="#00f3ff" stop-opacity="0.05" />
    </linearGradient>
  </defs>
  
  <rect width="800" height="500" fill="url(#bgGrad)" />
  
  <g stroke="#27272a" stroke-width="1" stroke-dasharray="8,8">
    <line x1="100" y1="0" x2="100" y2="500" />
    <line x1="200" y1="0" x2="200" y2="500" />
    <line x1="300" y1="0" x2="300" y2="500" />
    <line x1="400" y1="0" x2="400" y2="500" />
    <line x1="500" y1="0" x2="500" y2="500" />
    <line x1="600" y1="0" x2="600" y2="500" />
    <line x1="700" y1="0" x2="700" y2="500" />
    <line x1="0" y1="125" x2="800" y2="125" />
    <line x1="0" y1="250" x2="800" y2="250" />
    <line x1="0" y1="375" x2="800" y2="375" />
  </g>

  <rect x="60" y="50" width="680" height="400" fill="url(#accentGrad)" stroke="#3f3f46" stroke-width="2" rx="12" />
  <line x1="400" y1="50" x2="400" y2="450" stroke="#3f3f46" stroke-width="2" />
  
  <circle cx="400" cy="250" r="70" fill="none" stroke="#3f3f46" stroke-width="2" />
  <circle cx="400" cy="250" r="6" fill="#10b981" />
  
  <rect x="60" y="160" width="50" height="180" fill="none" stroke="#27272a" stroke-width="2" />
  <rect x="690" y="160" width="50" height="180" fill="none" stroke="#27272a" stroke-width="2" />

  <path d="M 60,80 A 30,30 0 0,0 90,50" fill="none" stroke="#27272a" stroke-width="1.5" />
  <path d="M 740,80 A 30,30 0 0,1 710,50" fill="none" stroke="#27272a" stroke-width="1.5" />
  <path d="M 60,420 A 30,30 0 0,1 90,450" fill="none" stroke="#27272a" stroke-width="1.5" />
  <path d="M 740,420 A 30,30 0 0,0 710,450" fill="none" stroke="#27272a" stroke-width="1.5" />

  <text x="400" y="295" font-family="monospace" font-size="11" fill="#71717a" letter-spacing="6" text-anchor="middle" font-weight="bold">SPORTIX PRESET LAYER</text>
</svg>
